<svg width="16" height="17" viewBox="0 0 16 17" fill="none" xmlns="http://www.w3.org/2000/svg">
<g clip-path="url(#clip0_402_237)">
<path d="M10.0332 3.83329C10.6844 3.96034 11.2828 4.2788 11.752 4.74792C12.2211 5.21704 12.5395 5.81547 12.6666 6.46663M10.0332 1.16663C11.3861 1.31692 12.6476 1.92274 13.6107 2.88463C14.5738 3.84652 15.1813 5.1073 15.3332 6.45996M14.6666 11.78V13.78C14.6673 13.9656 14.6293 14.1494 14.5549 14.3195C14.4805 14.4896 14.3714 14.6424 14.2346 14.7679C14.0978 14.8934 13.9363 14.9889 13.7604 15.0484C13.5845 15.1079 13.3982 15.13 13.2132 15.1133C11.1618 14.8904 9.19125 14.1894 7.45991 13.0666C5.84913 12.0431 4.48347 10.6774 3.45991 9.06663C2.33323 7.32743 1.63208 5.34729 1.41325 3.28663C1.39659 3.10227 1.4185 2.91647 1.47758 2.74104C1.53667 2.56562 1.63163 2.40442 1.75643 2.26771C1.88122 2.13099 2.03312 2.02177 2.20244 1.94697C2.37177 1.87218 2.55481 1.83347 2.73991 1.83329H4.73991C5.06345 1.83011 5.37711 1.94468 5.62242 2.15565C5.86774 2.36662 6.02797 2.65959 6.07325 2.97996C6.15766 3.62 6.31421 4.24844 6.53992 4.85329C6.62961 5.09191 6.64902 5.35124 6.59585 5.60055C6.54268 5.84986 6.41916 6.0787 6.23991 6.25996L5.39325 7.10663C6.34229 8.77566 7.72422 10.1576 9.39325 11.1066L10.2399 10.26C10.4212 10.0807 10.65 9.95719 10.8993 9.90402C11.1486 9.85085 11.408 9.87026 11.6466 9.95996C12.2514 10.1857 12.8799 10.3422 13.5199 10.4266C13.8438 10.4723 14.1395 10.6354 14.3509 10.885C14.5624 11.1345 14.6747 11.453 14.6666 11.78Z" stroke="#00B6B0" stroke-width="1.33333" stroke-linecap="round" stroke-linejoin="round"/>
</g>
<defs>
<clipPath id="clip0_402_237">
<rect width="16" height="16" fill="white" transform="translate(0 0.5)"/>
</clipPath>
</defs>
</svg>
