<svg width="24" height="24" viewBox="0 0 24 24" fill="none" xmlns="http://www.w3.org/2000/svg">
<path fill-rule="evenodd" clip-rule="evenodd" d="M4.00002 5C3.45231 5 3.00002 5.45228 3.00002 6V18C3.00002 18.5477 3.45231 19 4.00002 19H20C20.5477 19 21 18.5477 21 18V6C21 5.45228 20.5477 5 20 5H4.00002ZM1.00002 6C1.00002 4.34772 2.34774 3 4.00002 3H20C21.6523 3 23 4.34772 23 6V18C23 19.6523 21.6523 21 20 21H4.00002C2.34774 21 1.00002 19.6523 1.00002 18V6Z" fill="white"/>
<path fill-rule="evenodd" clip-rule="evenodd" d="M1.18079 5.42654C1.49751 4.97409 2.12104 4.86405 2.57349 5.18077L12 11.7793L21.4266 5.18077C21.879 4.86405 22.5025 4.97409 22.8193 5.42654C23.136 5.87899 23.0259 6.50252 22.5735 6.81923L12.5735 13.8192C12.2292 14.0603 11.7709 14.0603 11.4266 13.8192L1.42656 6.81923C0.974113 6.50252 0.864078 5.87899 1.18079 5.42654Z" fill="white"/>
</svg>
