<svg width="146" height="40" viewBox="0 0 146 40" fill="none" xmlns="http://www.w3.org/2000/svg">
<g clip-path="url(#clip0_201_100)">
<path d="M45.1193 23.8942V7.82141H63.2487V23.8942H59.3416V10.9467H49.0427V23.8942H45.1193Z" fill="#00B6B0"/>
<path d="M65.9297 21.2485C66.2882 21.2599 66.6451 21.1951 66.9774 21.0584C67.3096 20.9217 67.6098 20.7161 67.8587 20.4548C68.2345 19.8443 68.464 19.1535 68.5289 18.4374C68.6903 17.049 68.7667 15.6518 68.7578 14.2539V11.3105H81.7378V23.8942H77.9615V14.2539H72.2725V14.7334C72.3017 16.4475 72.1537 18.1599 71.8311 19.8429C71.6575 20.8689 71.2238 21.8317 70.5724 22.6375C70.0962 23.1832 69.4792 23.584 68.7905 23.795C67.9059 24.0343 66.9923 24.1457 66.0768 24.1257L65.9297 21.2485Z" fill="#00B6B0"/>
<path d="M84.8111 15.0806C84.9745 14.4387 85.2682 13.8381 85.6735 13.3171C86.0788 12.7962 86.5867 12.3662 87.1652 12.0546C88.697 11.3289 90.3795 10.9885 92.0694 11.0624C93.9137 10.9223 95.7587 11.3243 97.3824 12.2199C97.9391 12.6386 98.3813 13.1938 98.6673 13.8331C98.9533 14.4725 99.0737 15.1749 99.0171 15.8743V20.4878C98.9971 20.7357 99.0668 20.9825 99.2133 21.1823C99.3904 21.3346 99.6189 21.4117 99.8509 21.3973H100.39V23.8942C99.8621 24.0669 99.3107 24.1562 98.7556 24.1587C96.9573 24.1587 95.9765 23.365 95.813 21.7776C95.0821 22.5567 94.1806 23.1514 93.1811 23.5138C92.0522 23.941 90.8552 24.154 89.65 24.1422C88.2933 24.2251 86.9448 23.8783 85.792 23.1501C85.3475 22.847 84.9867 22.4345 84.7436 21.9514C84.5005 21.4682 84.3831 20.9304 84.4024 20.3886C84.3741 19.8537 84.4844 19.3205 84.7224 18.842C84.9604 18.3634 85.3178 17.9561 85.7593 17.6602C87.0797 16.9348 88.5561 16.5486 90.0587 16.5358L95.6495 16.1554C95.6849 15.7974 95.6265 15.4362 95.4801 15.1082C95.3338 14.7802 95.1047 14.497 94.8158 14.2869C93.9882 13.8427 93.0522 13.6476 92.1185 13.7247C91.2177 13.6729 90.3171 13.8313 89.4865 14.1877C89.2057 14.3267 88.9632 14.5339 88.7807 14.7906C88.5981 15.0474 88.4812 15.3458 88.4403 15.6594L84.8111 15.0806ZM87.9989 20.1406C87.9842 20.3516 88.0304 20.5624 88.132 20.7474C88.2336 20.9324 88.3861 21.0835 88.571 21.1823C89.1456 21.4409 89.7753 21.549 90.402 21.4965C91.3106 21.5064 92.2152 21.3725 93.083 21.0996C93.7939 20.8868 94.4478 20.5136 94.9956 20.0083C95.2215 19.7984 95.4009 19.5425 95.522 19.2576C95.6432 18.9726 95.7033 18.6649 95.6986 18.3547V18.1893L89.9115 18.7185C88.6528 18.8342 87.9989 19.3138 87.9989 20.1406Z" fill="#00B6B0"/>
<path d="M103.071 23.8942V11.3105H106.799V15.7917H114.433V11.3105H118.127V23.8942H114.433V18.702H106.799V23.8942H103.071Z" fill="#00B6B0"/>
<path d="M128.721 23.8942V7.82141H144.561V10.8971H132.497V13.9231H140.262C141.724 13.8427 143.162 14.3274 144.284 15.279C144.778 15.7397 145.167 16.3038 145.424 16.932C145.681 17.5603 145.799 18.2376 145.771 18.9169C145.799 19.5937 145.68 20.2685 145.424 20.8941C145.167 21.5196 144.777 22.0808 144.284 22.5382C143.164 23.4944 141.725 23.9797 140.262 23.8942H128.721ZM139.755 16.8995H132.497V20.9343H139.755C140.344 20.9721 140.926 20.7897 141.39 20.4217C141.583 20.2289 141.733 19.9961 141.829 19.7392C141.925 19.4823 141.965 19.2074 141.946 18.9334C141.968 18.6553 141.927 18.3758 141.828 18.1154C141.729 17.855 141.574 17.6204 141.374 17.4287C140.921 17.0501 140.342 16.8608 139.755 16.8995Z" fill="#00B6B0"/>
<path d="M45.2827 36.6598V30.9715H46.6232V33.1542H50.563V30.9715H51.9035V36.6598H50.563V34.196H46.6232V36.6598H45.2827Z" fill="#00B6B0"/>
<path d="M57.2164 36.7755C56.2559 36.8373 55.3051 36.5499 54.5354 35.9653C54.2355 35.6953 53.9954 35.3642 53.831 34.9937C53.6666 34.6232 53.5816 34.2217 53.5816 33.8156C53.5816 33.4095 53.6666 33.008 53.831 32.6375C53.9954 32.267 54.2355 31.9359 54.5354 31.666C55.3167 31.1535 56.228 30.8808 57.1592 30.8808C58.0904 30.8808 59.0017 31.1535 59.783 31.666C60.0935 31.9054 60.3431 32.2163 60.5108 32.573C60.6786 32.9296 60.7597 33.3216 60.7475 33.7164C60.7705 33.8754 60.7705 34.0369 60.7475 34.1959H54.8133C54.8383 34.434 54.9141 34.6638 55.0355 34.8694C55.1568 35.0749 55.3209 35.2514 55.5163 35.3865C56.0039 35.6979 56.5752 35.8482 57.151 35.8164C57.6586 35.8395 58.1653 35.755 58.6387 35.5684C58.7955 35.4998 58.937 35.4001 59.055 35.2751C59.1729 35.1501 59.2648 35.0024 59.3253 34.8408L60.6167 35.0723C60.5252 35.3556 60.3782 35.6173 60.1844 35.8418C59.9905 36.0662 59.7539 36.2488 59.4887 36.3787C58.7724 36.6887 57.9941 36.8246 57.2164 36.7755ZM57.2164 31.8148C55.9086 31.8148 55.1403 32.2943 54.9441 33.2369H59.4234C59.3969 33.021 59.323 32.8139 59.207 32.6307C59.091 32.4476 58.9359 32.2931 58.7531 32.1786C58.2545 31.9017 57.6839 31.7863 57.1183 31.8479L57.2164 31.8148Z" fill="#00B6B0"/>
<path d="M61.3033 38.2968V35.6015H61.9572C62.3016 35.2657 62.5259 34.8236 62.5948 34.3448C62.7453 33.4377 62.8219 32.5196 62.8237 31.5999V30.9715H68.2838V35.6015H69.1665V38.2968H67.9078V36.6433H62.5458V38.2968H61.3033ZM63.7555 34.8409C63.6695 35.1224 63.5245 35.3818 63.3304 35.6015H67.025V31.9636H64.0497C64.0497 32.7078 64.0497 33.2865 63.9516 33.7164C63.9256 34.0972 63.8598 34.4741 63.7555 34.8409Z" fill="#00B6B0"/>
<path d="M70.4743 36.6598V30.9715H74.8554C75.3518 30.9471 75.8433 31.0801 76.2613 31.3518C76.4549 31.5122 76.5996 31.7247 76.6786 31.9648C76.7577 32.2049 76.7678 32.4628 76.7079 32.7085C76.6481 32.9542 76.5206 33.1778 76.3403 33.3532C76.16 33.5287 75.9342 33.6489 75.6892 33.6999C76.0595 33.7676 76.4012 33.9462 76.67 34.2125C76.7978 34.356 76.895 34.5246 76.9555 34.7078C77.016 34.8911 77.0385 35.0849 77.0216 35.2773C77.0048 35.4697 76.9489 35.6565 76.8574 35.8261C76.766 35.9957 76.641 36.1444 76.4902 36.2629C76.0433 36.5534 75.5165 36.6924 74.9862 36.6598H70.4743ZM74.5122 31.8809H71.7658V33.3195H74.5122C74.7638 33.3275 75.009 33.2389 75.1987 33.0715C75.2802 33.0074 75.3451 32.9243 75.3878 32.8292C75.4305 32.7342 75.4498 32.6301 75.444 32.5258C75.4276 32.1124 75.1987 31.8809 74.5122 31.8809ZM74.6102 34.1959H71.7658V35.7503H74.6429C74.9083 35.7696 75.1727 35.6999 75.3949 35.5519C75.4818 35.488 75.5513 35.403 75.5971 35.3047C75.6428 35.2064 75.6632 35.0981 75.6565 34.9897C75.6565 34.4605 75.3132 34.1959 74.6102 34.1959Z" fill="#00B6B0"/>
<path d="M78.55 36.6598V30.9715H79.8741V35.0724L83.7812 30.9715H85.089V36.6598H83.7812V32.5589L79.8741 36.6598H78.55Z" fill="#00B6B0"/>
<path d="M90.5655 36.6598V33.766L87.8027 36.6598H86.168L89.1759 33.5841L86.2661 30.9715H87.9008L90.5818 33.5511V30.9715H91.8733V33.5676L94.587 30.9715H96.2217L93.3119 33.5841L96.3198 36.6598H94.685L91.906 33.766V36.6598H90.5655Z" fill="#00B6B0"/>
<path d="M97.3497 36.6598V30.9715H98.6738V35.0724L102.581 30.9715H103.889V36.6598H102.581V32.5589L98.6738 36.6598H97.3497Z" fill="#00B6B0"/>
<path d="M107.175 36.6598H105.916V30.9715H107.403L110.084 34.6259L112.798 30.9715H114.302V36.6598H113.043V32.4432L110.738 35.6511H109.529L107.207 32.4432L107.175 36.6598Z" fill="#00B6B0"/>
<path d="M119.468 36.7755C118.515 36.8352 117.572 36.5542 116.803 35.9818C116.5 35.7103 116.258 35.3768 116.091 35.0034C115.925 34.6299 115.839 34.2251 115.839 33.8156C115.839 33.4061 115.925 33.0013 116.091 32.6279C116.258 32.2544 116.5 31.9209 116.803 31.6494C117.572 31.077 118.515 30.7961 119.468 30.8557C120.426 30.7964 121.374 31.0771 122.149 31.6494C122.45 31.9224 122.69 32.2563 122.855 32.6296C123.02 33.0028 123.105 33.4069 123.105 33.8156C123.105 34.2243 123.02 34.6284 122.855 35.0017C122.69 35.3749 122.45 35.7088 122.149 35.9818C121.373 36.5529 120.426 36.8335 119.468 36.7755ZM119.468 35.7172C120.053 35.7467 120.63 35.5715 121.103 35.2211C121.297 35.0461 121.45 34.8286 121.549 34.5851C121.648 34.3416 121.691 34.0784 121.675 33.8156C121.689 33.5506 121.645 33.2857 121.546 33.0399C121.447 32.794 121.296 32.5733 121.103 32.3935C120.59 32.0781 120.002 31.9112 119.403 31.9112C118.803 31.9112 118.215 32.0781 117.702 32.3935C117.511 32.5742 117.363 32.7954 117.266 33.0414C117.17 33.2873 117.129 33.5517 117.147 33.8156C117.124 34.0791 117.164 34.3443 117.264 34.5888C117.363 34.8334 117.519 35.0502 117.719 35.2211C118.22 35.6024 118.844 35.7795 119.468 35.7172Z" fill="#00B6B0"/>
<path d="M131.271 32.9227L129.947 33.1707C129.767 32.3274 129.064 31.914 127.854 31.914C127.268 31.8775 126.689 32.0534 126.219 32.4101C125.854 32.7845 125.649 33.2895 125.649 33.8156C125.649 34.3418 125.854 34.8467 126.219 35.2212C126.691 35.574 127.269 35.7495 127.854 35.7172C129.08 35.7172 129.767 35.2873 129.947 34.4274L131.271 34.6755C131.204 34.9991 131.071 35.3049 130.879 35.5727C130.688 35.8406 130.442 36.0645 130.159 36.2298C129.454 36.6206 128.657 36.8093 127.854 36.7755C126.901 36.8352 125.958 36.5542 125.19 35.9818C124.891 35.7075 124.653 35.3731 124.489 35C124.326 34.627 124.242 34.2236 124.242 33.8156C124.242 33.4077 124.326 33.0043 124.489 32.6312C124.653 32.2582 124.891 31.9238 125.19 31.6494C125.953 31.0795 126.89 30.7986 127.838 30.8557C128.639 30.8234 129.434 31.0059 130.143 31.3849C130.425 31.5498 130.67 31.7714 130.864 32.0358C131.058 32.3003 131.196 32.6021 131.271 32.9227Z" fill="#00B6B0"/>
<path d="M134.508 36.6598V32.0463H131.859V30.9715H138.496V32.0463H135.848V36.6598H134.508Z" fill="#00B6B0"/>
<path d="M139.69 36.6598V30.9715H141.03V32.7243H143.744C144.332 32.691 144.912 32.873 145.379 33.2369C145.576 33.4216 145.73 33.6475 145.832 33.8988C145.933 34.1501 145.98 34.4208 145.967 34.692C145.981 34.9609 145.935 35.2295 145.833 35.4783C145.731 35.727 145.576 35.9499 145.379 36.1307C144.913 36.4978 144.334 36.6854 143.744 36.6598H139.69ZM143.548 33.6668H141.03V35.7007H143.548C143.856 35.7216 144.162 35.6339 144.414 35.4527C144.513 35.3529 144.592 35.2343 144.645 35.1038C144.699 34.9733 144.726 34.8333 144.726 34.692C144.726 34.5507 144.699 34.4108 144.645 34.2803C144.592 34.1498 144.513 34.0312 144.414 33.9314C144.169 33.7362 143.859 33.6417 143.548 33.6668Z" fill="#00B6B0"/>
<path d="M9.4162 32.3936H7.55258V12.7987H20.2873C21.6476 12.875 22.9273 13.4753 23.8636 14.4763C24.7998 15.4774 25.3216 16.8031 25.3216 18.1811C25.3216 19.5591 24.7998 20.8848 23.8636 21.8858C22.9273 22.8869 21.6476 23.4872 20.2873 23.5635H18.816V21.6619H20.2873C20.7592 21.6948 21.2327 21.6292 21.6784 21.4692C22.1241 21.3092 22.5325 21.0581 22.8783 20.7317C23.224 20.4052 23.4997 20.0104 23.6882 19.5716C23.8767 19.1328 23.974 18.6595 23.974 18.1811C23.974 17.7027 23.8767 17.2294 23.6882 16.7906C23.4997 16.3518 23.224 15.957 22.8783 15.6305C22.5325 15.3041 22.1241 15.053 21.6784 14.893C21.2327 14.733 20.7592 14.6674 20.2873 14.7003H9.4162V32.3936Z" fill="#00A9AA"/>
<path d="M21.5461 32.4266H13.1761V18.5366H15.0561V30.5415H21.5951C22.2492 30.5343 22.8877 30.3391 23.4362 29.9787C23.9847 29.6183 24.4207 29.1076 24.6931 28.5061C24.9656 27.9046 25.0634 27.2372 24.9751 26.5816C24.8868 25.9261 24.616 25.3094 24.1944 24.8036L25.6493 23.5965C26.2917 24.383 26.6994 25.3381 26.825 26.3503C26.9506 27.3625 26.7887 28.3899 26.3584 29.3125C25.9281 30.2351 25.247 31.0148 24.3948 31.5604C23.5427 32.106 22.5546 32.3949 21.5461 32.3935V32.4266Z" fill="#00A9AA"/>
<path d="M34.4443 40H0V5.17569H11.7866L16.9034 0L18.2275 1.3394L12.5713 7.0773H1.87997V38.0984H32.5643V7.0773H21.6932V5.17569H34.4443V40Z" fill="#00A9AA"/>
</g>
<defs>
<clipPath id="clip0_201_100">
<rect width="146" height="40" fill="white"/>
</clipPath>
</defs>
</svg>
